<?xml version="1.0" encoding="UTF-8"?>
<svg id="logosandtypes_com" data-name="logosandtypes com" xmlns="http://www.w3.org/2000/svg" viewBox="0 0 150 150">
  <defs>
    <style>
      .cls-1 {
        fill: none;
      }
    </style>
  </defs>
  <path class="cls-1" d="M0,0H150V150H0V0Z"/>
  <path d="M110.75,92.65c1.94-8.17-1.92-17.71-9.73-21.36-11.01-5.33-24.47-2.67-35.66,.88-.71,.24-1.43,.38-2.18,.36-4.52,.12-7.31-5.64-4.67-9.06,1.19-1.71,3.25-2.49,4.91-3.66,55.43-35.74-17.34-72.72-16.63,16.41,.16,3,.05,6.02,.3,9.02,.07,1.84,.55,3.78-.34,5.5-2.13,4.93-9.85,4.24-10.93-1.08-2.93-16.47-11.65-30.87-24.02-41.92,2.36-2.88,4.9-5.82,7.38-8.6,.34,0,.5,.19,.67,.35,.86,.79,1.7,1.61,2.58,2.38,5.24,4.83,9.66,10.49,13.55,16.42,9.58-81.32,87.96-46.51,49.39-1.65,23.67-1.11,41.62,15.42,36.6,39.72,7.09,3.33,13.72,7.64,19.53,12.91-2.32,3-4.94,5.92-7.53,8.69-4.93-3.95-9.97-7.93-15.81-10.5-10.86,19.38-32.39,33.31-54.84,33.76-9.35,.02-20.27-4.8-21.85-14.97-2.1-20.9,28.71-31.42,45.24-34.17,7.97-1.31,16.14-1.03,24.04,.56Zm-4.09,11.22c-.21-.37-2.09-.37-2.61-.55-6.97-.97-14.13-.3-20.96,1.29-9.51,2.44-26.93,8.1-30.08,18.37-.63,2.52,1.62,4.44,3.72,5.33,3.7,1.61,7.84,1.47,11.78,1,14.98-2.58,30.6-12.07,38.15-25.44Z"/>
</svg>